# xmcd
#
# Track frame offsets: 
#        150
#        28118
#        43759
#        66831
#        90256
#        106389
#        132657
#        153804
#        180290
#        202658
#        234161
#        268437
#        300774
#        323317
#
# Disc length: 4701 seconds
#
# Revision: 2
# Processed by: cddbd v1.5.2PL0 Copyright (c) Steve Scherf et al.
# Submitted via: ExactAudioCopy v1.3
#
DISCID=a4125b0e
DTITLE=Bill Evans - 7 Classic Albums - Explorations
DYEAR=1961
DGENRE=Jazz
TTITLE0=Israel
TTITLE1=Haunted Heart
TTITLE2=Beautiful Love (Take 2)
TTITLE3=Elsa
TTITLE4=How Deep Is The Ocean
TTITLE5=Nardis
TTITLE6=I Wish I Knew
TTITLE7=Sweet And Lovely
TTITLE8=My Foolish Heart
TTITLE9=Waltz For Debby
TTITLE10=Detour Ahead
TTITLE11=My Romance (Take 1)
TTITLE12=Some Other Time
TTITLE13=Milestones
EXTD=
EXTT0=
EXTT1=
EXTT2=
EXTT3=
EXTT4=
EXTT5=
EXTT6=
EXTT7=
EXTT8=
EXTT9=
EXTT10=
EXTT11=
EXTT12=
EXTT13=
PLAYORDER=
